<svg width="100%" height="100%" viewBox="0 0 75 75" fill="none" xmlns="http://www.w3.org/2000/svg">
<rect x="3.3877" y="3.97949" width="67.7959" height="67.7959" rx="33.898" fill="#010101"/>
<rect x="3.3877" y="3.97949" width="67.7959" height="67.7959" rx="33.898" stroke="#823CDF" stroke-width="6"/>
<g clip-path="url(#clip0_12981_10799)">
<mask id="mask0_12981_10799" style="mask-type:luminance" maskUnits="userSpaceOnUse" x="17" y="18" width="41" height="40">
<path d="M37.3877 57.5324C48.2427 57.5324 57.0423 48.7328 57.0423 37.8778C57.0423 27.0228 48.2427 18.2229 37.3877 18.2229C26.5327 18.2229 17.7328 27.0228 17.7328 37.8778C17.7328 48.7328 26.5327 57.5324 37.3877 57.5324Z" fill="white"/>
</mask>
<g mask="url(#mask0_12981_10799)">
<path d="M58.9035 16.3623H15.8719V59.3939H58.9035V16.3623Z" fill="url(#paint0_linear_12981_10799)"/>
</g>
<path d="M43.0722 42.1187L48.6327 38.9079C48.7776 38.8239 48.8979 38.7034 48.9816 38.5583C49.0653 38.4133 49.1093 38.2488 49.1094 38.0813V31.6601C49.1094 31.3208 48.9265 31.0036 48.6327 30.8335L43.0722 27.6227C42.927 27.5393 42.7625 27.4954 42.595 27.4954C42.4275 27.4954 42.263 27.5393 42.1178 27.6227L36.5572 30.8335C36.4124 30.9175 36.2922 31.0381 36.2085 31.1831C36.1249 31.3282 36.0807 31.4926 36.0805 31.6601V43.1356L32.1809 45.3866L28.2816 43.1356V38.6325L32.1809 36.3815L34.7532 37.8662V34.8455L32.6576 33.6359C32.5125 33.5524 32.348 33.5084 32.1806 33.5084C32.0131 33.5084 31.8486 33.5524 31.7035 33.6359L26.1427 36.847C25.9978 36.931 25.8775 37.0515 25.7938 37.1966C25.7101 37.3416 25.6661 37.5061 25.666 37.6736V44.0945C25.666 44.4341 25.8489 44.751 26.1427 44.9211L31.7035 48.1322C31.8488 48.2153 32.0132 48.2591 32.1806 48.2591C32.3479 48.2591 32.5124 48.2153 32.6576 48.1322L38.2185 44.9221C38.3633 44.838 38.4836 44.7175 38.5672 44.5724C38.6509 44.4274 38.695 44.2629 38.6952 44.0954V32.6199L38.7658 32.5798L42.5945 30.369L46.4942 32.6199V37.1231L42.5945 39.374L40.0264 37.8909V40.9117L42.1178 42.1196C42.2631 42.2028 42.4276 42.2466 42.595 42.2466C42.7624 42.2466 42.9269 42.2028 43.0722 42.1196V42.1187Z" fill="white"/>
</g>
<defs>
<linearGradient id="paint0_linear_12981_10799" x1="8.00774" y1="19.8989" x2="52.4309" y2="47.0838" gradientUnits="userSpaceOnUse">
<stop stop-color="#A229C5"/>
<stop offset="1" stop-color="#7B3FE4"/>
</linearGradient>
<clipPath id="clip0_12981_10799">
<rect width="40.1265" height="40.1265" fill="white" transform="translate(17.3245 17.8142)"/>
</clipPath>
</defs>
</svg>
