<svg width="100%" height="100%" viewBox="0 0 512 512" fill="none" xmlns="http://www.w3.org/2000/svg">
<path d="M405.333 277.333H362.667C357.009 277.333 351.582 279.581 347.582 283.582C343.581 287.583 341.333 293.009 341.333 298.667C341.333 304.325 343.581 309.751 347.582 313.752C351.582 317.752 357.009 320 362.667 320H382.08C377.634 346.164 365.165 370.299 346.399 389.065C327.633 407.831 303.497 420.3 277.333 424.747V234.667H298.667C304.325 234.667 309.751 232.419 313.752 228.418C317.752 224.418 320 218.991 320 213.333C320 207.675 317.752 202.249 313.752 198.248C309.751 194.248 304.325 192 298.667 192H277.333V166.827C291.567 161.794 303.564 151.892 311.203 138.87C318.842 125.848 321.631 110.544 319.078 95.6643C316.525 80.7844 308.794 67.2861 297.251 57.5551C285.709 47.824 271.097 42.4869 256 42.4869C240.903 42.4869 226.291 47.824 214.749 57.5551C203.206 67.2861 195.475 80.7844 192.922 95.6643C190.369 110.544 193.158 125.848 200.797 138.87C208.436 151.892 220.433 161.794 234.667 166.827V192H213.333C207.675 192 202.249 194.248 198.248 198.248C194.248 202.249 192 207.675 192 213.333C192 218.991 194.248 224.418 198.248 228.418C202.249 232.419 207.675 234.667 213.333 234.667H234.667V424.747C208.503 420.3 184.367 407.831 165.601 389.065C146.835 370.299 134.366 346.164 129.92 320H149.333C154.991 320 160.418 317.752 164.418 313.752C168.419 309.751 170.667 304.325 170.667 298.667C170.667 293.009 168.419 287.583 164.418 283.582C160.418 279.581 154.991 277.333 149.333 277.333H106.667C101.009 277.333 95.5825 279.581 91.5817 283.582C87.581 287.583 85.3333 293.009 85.3333 298.667C85.3333 343.93 103.314 387.34 135.32 419.346C167.327 451.352 210.736 469.333 256 469.333C301.264 469.333 344.673 451.352 376.68 419.346C408.686 387.34 426.667 343.93 426.667 298.667C426.667 293.009 424.419 287.583 420.418 283.582C416.418 279.581 410.991 277.333 405.333 277.333ZM256 128C251.781 128 247.656 126.749 244.148 124.405C240.64 122.061 237.905 118.729 236.291 114.831C234.676 110.932 234.253 106.643 235.077 102.505C235.9 98.3665 237.932 94.5652 240.915 91.5817C243.899 88.5982 247.7 86.5664 251.838 85.7432C255.976 84.9201 260.266 85.3426 264.164 86.9572C268.062 88.5719 271.394 91.3062 273.738 94.8145C276.082 98.3227 277.333 102.447 277.333 106.667C277.333 112.325 275.086 117.751 271.085 121.752C267.084 125.752 261.658 128 256 128Z" fill="currentColor"/>
</svg>
