<svg width="100%" height="100%" viewBox="0 0 512 512" fill="none" xmlns="http://www.w3.org/2000/svg">
<path d="M149.333 266.667C161.991 266.667 174.365 262.913 184.89 255.881C195.415 248.848 203.618 238.853 208.462 227.158C213.306 215.464 214.573 202.596 212.104 190.181C209.634 177.766 203.539 166.362 194.588 157.412C185.638 148.461 174.234 142.366 161.819 139.896C149.404 137.427 136.536 138.694 124.842 143.538C113.147 148.382 103.152 156.585 96.1193 167.11C89.0869 177.635 85.3333 190.009 85.3333 202.667C85.3333 219.641 92.0762 235.919 104.079 247.922C116.081 259.924 132.359 266.667 149.333 266.667ZM149.333 181.333C153.553 181.333 157.677 182.585 161.186 184.929C164.694 187.273 167.428 190.605 169.043 194.503C170.657 198.401 171.08 202.69 170.257 206.829C169.434 210.967 167.402 214.768 164.418 217.752C161.435 220.735 157.634 222.767 153.495 223.59C149.357 224.413 145.068 223.991 141.169 222.376C137.271 220.761 133.939 218.027 131.595 214.519C129.251 211.011 128 206.886 128 202.667C128 197.009 130.248 191.583 134.248 187.582C138.249 183.581 143.675 181.333 149.333 181.333ZM426.667 138.667H256C250.342 138.667 244.916 140.914 240.915 144.915C236.914 148.916 234.667 154.342 234.667 160V288H64V117.333C64 111.675 61.7524 106.249 57.7516 102.248C53.7508 98.2476 48.3246 96 42.6667 96C37.0087 96 31.5825 98.2476 27.5817 102.248C23.5809 106.249 21.3333 111.675 21.3333 117.333V394.667C21.3333 400.325 23.5809 405.751 27.5817 409.752C31.5825 413.752 37.0087 416 42.6667 416C48.3246 416 53.7508 413.752 57.7516 409.752C61.7524 405.751 64 400.325 64 394.667V330.667H448V394.667C448 400.325 450.248 405.751 454.248 409.752C458.249 413.752 463.675 416 469.333 416C474.991 416 480.418 413.752 484.418 409.752C488.419 405.751 490.667 400.325 490.667 394.667V202.667C490.667 185.693 483.924 169.414 471.922 157.412C459.919 145.41 443.641 138.667 426.667 138.667ZM448 288H277.333V181.333H426.667C432.325 181.333 437.751 183.581 441.752 187.582C445.752 191.583 448 197.009 448 202.667V288Z" fill="currentColor"/>
</svg>
