<svg width="100%" height="100%" viewBox="0 0 512 512" fill="none" xmlns="http://www.w3.org/2000/svg">
<path d="M473.28 118.08L259.947 32.7468C257.387 31.6801 254.613 31.6801 252.053 32.7468L38.72 118.08C34.6667 119.68 32 123.627 32 128V282.667C32 288.533 36.8 293.333 42.6667 293.333C48.5333 293.333 53.3333 288.533 53.3333 282.667V135.253L256 54.1868L458.667 135.253V282.667C458.667 288.533 463.467 293.333 469.333 293.333C475.2 293.333 480 288.533 480 282.667V128C480 123.627 477.333 119.68 473.28 118.08Z" fill="currentColor"/>
<path d="M96 245.333V320C72.4267 320 53.3334 339.093 53.3334 362.667V437.333C53.3334 443.2 58.1334 448 64 448H74.6667V469.333C74.6667 475.2 79.4667 480 85.3334 480H128C133.867 480 138.667 475.2 138.667 469.333V448H373.333V469.333C373.333 475.2 378.133 480 384 480H426.667C432.533 480 437.333 475.2 437.333 469.333V448H448C453.867 448 458.667 443.2 458.667 437.333V362.667C458.667 339.093 439.573 320 416 320V245.333C416 227.733 401.6 213.333 384 213.333H128C110.4 213.333 96 227.733 96 245.333ZM117.333 458.667H96V448H117.333V458.667ZM416 458.667H394.667V448H416V458.667ZM437.333 426.667H74.6667V405.333H437.333V426.667ZM416 341.333C427.733 341.333 437.333 350.933 437.333 362.667V384H74.6667V362.667C74.6667 350.933 84.2667 341.333 96 341.333H416ZM149.333 320V298.667H213.333V320H149.333ZM298.667 320V298.667H362.667V320H298.667ZM394.667 245.333V320H384V298.667C384 286.933 374.4 277.333 362.667 277.333H298.667C286.933 277.333 277.333 286.933 277.333 298.667V320H234.667V298.667C234.667 286.933 225.067 277.333 213.333 277.333H149.333C137.6 277.333 128 286.933 128 298.667V320H117.333V245.333C117.333 239.467 122.133 234.667 128 234.667H384C389.867 234.667 394.667 239.467 394.667 245.333ZM308.267 111.68L278.72 107.413L265.6 80.6399C262.08 73.5999 249.92 73.5999 246.507 80.6399L233.28 107.413L203.733 111.68C199.68 112.213 196.373 115.093 195.093 118.933C193.813 122.773 194.88 127.04 197.76 129.813L219.093 150.613L214.08 179.947C213.44 184 215.04 187.947 218.347 190.4C220.16 191.787 222.4 192.427 224.64 192.427C226.347 192.427 228.053 192 229.547 191.147L255.893 177.28L282.24 191.147C285.76 193.067 290.24 192.64 293.44 190.293C296.747 187.84 298.347 183.893 297.707 179.84L292.693 150.507L314.027 129.707C316.907 126.827 317.973 122.667 316.693 118.827C315.627 114.987 312.32 112.213 308.267 111.68ZM273.92 139.307C271.36 141.76 270.293 145.28 270.827 148.693L273.173 162.347L261.013 155.947C257.92 154.347 254.08 154.347 251.093 155.947L238.827 162.347L241.173 148.693C241.813 145.28 240.64 141.653 238.08 139.307L228.16 129.707L241.813 127.68C245.333 127.147 248.32 125.013 249.813 121.813L256 109.44L262.08 121.813C263.68 125.013 266.667 127.147 270.08 127.68L283.733 129.707L273.92 139.307Z" fill="currentColor"/>
</svg>
