<svg width="100%" height="100%" viewBox="0 0 512 512" fill="none" xmlns="http://www.w3.org/2000/svg">
<path d="M367 320.08V270.12L326.36 293.56V343.56L367 320.08Z" fill="black"/>
<path d="M367 191.92L324.84 167.56L256 207.32L187.16 167.56L145 191.92V236.2L215 276.64V360.52L256 384.2L297 360.52V276.64L367 236.2V191.92ZM437.4 195.56V151.28L395.24 126.92L354.2 150.6L396.36 174.96V219.24L437.4 195.56ZM115.64 219.24V174.96L157.8 150.6L116.76 126.92L74.6001 151.28V195.56L115.64 219.24Z" fill="black"/>
<path d="M145 320.08L185.64 343.56V293.56L145 270.12V320.08ZM297 394.44L256 418.12L215 394.44V441.8L256 465.48L297 441.8V394.44ZM295.48 150.6L256 127.8L216.52 150.6L256 173.4L295.48 150.6ZM396.36 253.16V337.04L326.36 377.48V424.84L437.4 360.72V229.48L396.36 253.16Z" fill="black"/>
<path d="M185.64 377.48L115.64 337.04V253.16L74.6001 229.48V360.72L185.64 424.84V377.48ZM187.16 133.64L256 93.92L324.84 133.64L365.88 109.96L256 46.52L146.12 109.96L187.16 133.64Z" fill="currentColor"/>
</svg>
