<svg width="100%" height="100%" viewBox="0 0 512 512" fill="none" xmlns="http://www.w3.org/2000/svg">
<path d="M77.2266 368.64C79.32 373.902 83.418 378.117 88.619 380.357C93.82 382.598 99.698 382.68 104.96 380.587C110.222 378.494 114.437 374.396 116.677 369.195C118.917 363.994 119 358.116 116.907 352.854L93.0133 292.694L234.667 261.334V362.667C234.667 368.325 236.914 373.751 240.915 377.752C244.916 381.753 250.342 384 256 384C261.658 384 267.084 381.753 271.085 377.752C275.086 373.751 277.333 368.325 277.333 362.667V261.334L418.987 292.694L395.093 352.854C394.054 355.459 393.539 358.243 393.577 361.048C393.615 363.852 394.206 366.622 395.316 369.198C396.425 371.774 398.032 374.105 400.044 376.06C402.055 378.014 404.433 379.553 407.04 380.587C409.553 381.58 412.231 382.087 414.933 382.08C419.206 382.084 423.381 380.806 426.919 378.409C430.456 376.013 433.192 372.61 434.773 368.64L467.84 285.227C468.975 282.342 469.467 279.244 469.283 276.149C469.099 273.055 468.242 270.037 466.773 267.307C465.348 264.587 463.352 262.207 460.922 260.329C458.492 258.451 455.685 257.12 452.693 256.427L384 241.28V149.334C384 143.676 381.752 138.249 377.752 134.249C373.751 130.248 368.325 128 362.667 128H320V64.0003C320 58.3424 317.752 52.9162 313.752 48.9154C309.751 44.9146 304.325 42.667 298.667 42.667H213.333C207.675 42.667 202.249 44.9146 198.248 48.9154C194.248 52.9162 192 58.3424 192 64.0003V128H149.333C143.675 128 138.249 130.248 134.248 134.249C130.248 138.249 128 143.676 128 149.334V241.28L59.3066 256C56.3149 256.694 53.5081 258.025 51.0781 259.902C48.6481 261.78 46.6521 264.16 45.2266 266.88C43.7574 269.61 42.9008 272.628 42.7166 275.723C42.5324 278.818 43.0249 281.915 44.1599 284.8L77.2266 368.64ZM234.667 85.3337H277.333V128H234.667V85.3337ZM170.667 170.667H341.333V231.68L260.693 213.334H258.56H256H253.44H251.307L170.667 231.68V170.667ZM441.813 411.307C434.328 413.601 427.161 416.826 420.48 420.907C413.684 424.881 405.953 426.976 398.08 426.976C390.207 426.976 382.476 424.881 375.68 420.907C360.902 412.57 344.221 408.189 327.253 408.189C310.285 408.189 293.605 412.57 278.827 420.907C271.937 424.835 264.144 426.901 256.213 426.901C248.283 426.901 240.489 424.835 233.6 420.907C218.808 412.61 202.133 408.252 185.173 408.252C168.214 408.252 151.538 412.61 136.747 420.907C129.951 424.881 122.219 426.976 114.347 426.976C106.474 426.976 98.7427 424.881 91.9466 420.907C85.2657 416.826 78.0985 413.601 70.6133 411.307C67.7747 410.298 64.7546 409.901 61.7517 410.143C58.7488 410.385 55.8312 411.261 53.1911 412.712C50.5509 414.163 48.2481 416.157 46.4341 418.562C44.62 420.967 43.3361 423.73 42.6666 426.667C41.074 432.07 41.683 437.884 44.3607 442.84C47.0385 447.796 51.5676 451.491 56.9599 453.12C61.2557 454.284 65.354 456.082 69.1199 458.454C82.063 466.048 96.7801 470.096 111.787 470.187C127.373 470.19 142.682 466.068 156.16 458.24C164.522 453.627 173.917 451.208 183.467 451.208C193.017 451.208 202.411 453.627 210.773 458.24C224.156 465.892 239.304 469.918 254.72 469.918C270.136 469.918 285.284 465.892 298.667 458.24C307.029 453.627 316.423 451.208 325.973 451.208C335.523 451.208 344.918 453.627 353.28 458.24C366.503 466.132 381.614 470.299 397.013 470.299C412.412 470.299 427.524 466.132 440.747 458.24C444.513 455.868 448.611 454.071 452.907 452.907C455.746 452.333 458.438 451.186 460.82 449.537C463.201 447.889 465.222 445.772 466.759 443.317C468.296 440.862 469.317 438.12 469.759 435.257C470.202 432.394 470.057 429.472 469.333 426.667C468.655 423.78 467.383 421.066 465.597 418.698C463.811 416.33 461.552 414.361 458.962 412.916C456.372 411.47 453.51 410.581 450.557 410.304C447.604 410.027 444.626 410.368 441.813 411.307Z" fill="currentColor"/>
</svg>
