<svg width="24" height="24" class="icon fs-5 me-4" xmlns="http://www.w3.org/2000/svg" fill="none" viewBox="0 0 22 20"><path fill-rule="evenodd" clip-rule="evenodd" d="M17.3 2.3c.3-.3.8-.3 1.1 0l2.3 2.4a.8.8 0 0 1-.5 1.3H1.4a.8.8 0 1 1 0-1.6h17l-1-1a.8.8 0 0 1 0-1Zm-16 5.9c0-.5.4-.8.8-.8h18.6a.8.8 0 0 1 .8 1l-.8-.2.8.2a12 12 0 0 1-.4 1l-1 1.9a9 9 0 0 1-1.6 2c-.6.5-1.4 1-2.4 1H7.2L4.7 17a.8.8 0 0 1-1.3-.6v-2h-.8a.8.8 0 0 1-.8-.7 57 57 0 0 1-.5-5.4h.8-.8Zm1.6.7a36.5 36.5 0 0 0 .3 3.9h12.9c.5 0 .9-.2 1.4-.7.5-.4.9-1 1.3-1.6l.8-1.6H2.9ZM5 14.3v.1Z" fill="currentColor"></path></svg>