<svg width="100%" height="100%" viewBox="0 0 512 512" fill="none" xmlns="http://www.w3.org/2000/svg">
<path d="M286.08 256L377.813 164.48C381.831 160.463 384.087 155.014 384.087 149.333C384.087 143.652 381.831 138.204 377.813 134.187C373.796 130.169 368.348 127.913 362.667 127.913C356.986 127.913 351.537 130.169 347.52 134.187L256 225.92L164.48 134.187C160.463 130.169 155.014 127.913 149.333 127.913C143.652 127.913 138.204 130.169 134.187 134.187C130.17 138.204 127.913 143.652 127.913 149.333C127.913 155.014 130.17 160.463 134.187 164.48L225.92 256L134.187 347.52C132.187 349.503 130.6 351.863 129.517 354.462C128.434 357.062 127.876 359.85 127.876 362.667C127.876 365.483 128.434 368.271 129.517 370.871C130.6 373.47 132.187 375.83 134.187 377.813C136.17 379.813 138.529 381.4 141.129 382.483C143.729 383.566 146.517 384.124 149.333 384.124C152.15 384.124 154.938 383.566 157.538 382.483C160.137 381.4 162.497 379.813 164.48 377.813L256 286.08L347.52 377.813C349.503 379.813 351.863 381.4 354.462 382.483C357.062 383.566 359.85 384.124 362.667 384.124C365.483 384.124 368.271 383.566 370.871 382.483C373.471 381.4 375.83 379.813 377.813 377.813C379.813 375.83 381.4 373.47 382.483 370.871C383.566 368.271 384.124 365.483 384.124 362.667C384.124 359.85 383.566 357.062 382.483 354.462C381.4 351.863 379.813 349.503 377.813 347.52L286.08 256Z" fill="currentColor"/>
</svg>
