<svg width="100%" height="100%" viewBox="0 0 448 320" fill="none" xmlns="http://www.w3.org/2000/svg">
<path d="M440 64H424V40C424 37.8783 423.157 35.8434 421.657 34.3431C420.157 32.8428 418.122 32 416 32H400V8C400 5.87827 399.157 3.84344 397.657 2.34315C396.157 0.842856 394.122 0 392 0H56C53.8783 0 51.8434 0.842856 50.3431 2.34315C48.8429 3.84344 48 5.87827 48 8V32H32C29.8783 32 27.8434 32.8428 26.3431 34.3431C24.8429 35.8434 24 37.8783 24 40V64H8C5.87827 64 3.84344 64.8428 2.34315 66.3431C0.842856 67.8434 0 69.8783 0 72V312C0 314.122 0.842856 316.157 2.34315 317.657C3.84344 319.157 5.87827 320 8 320H440C442.122 320 444.157 319.157 445.657 317.657C447.157 316.157 448 314.122 448 312V72C448 69.8783 447.157 67.8434 445.657 66.3431C444.157 64.8428 442.122 64 440 64ZM368.48 80C370.3 96.2198 377.578 111.34 389.119 122.881C400.66 134.422 415.78 141.7 432 143.52V240.48C415.78 242.3 400.66 249.578 389.119 261.119C377.578 272.66 370.3 287.78 368.48 304H79.52C77.6995 287.78 70.4221 272.66 58.881 261.119C47.3398 249.578 32.2198 242.3 16 240.48V143.52C32.2198 141.7 47.3398 134.422 58.881 122.881C70.4221 111.34 77.6995 96.2198 79.52 80H368.48ZM432 127.44C420.03 125.715 408.941 120.162 400.389 111.611C391.838 103.059 386.285 91.9696 384.56 80H432V127.44ZM64 16H384V32H64V16ZM40 48H408V64H40V48ZM16 80H63.44C61.7151 91.9696 56.1618 103.059 47.6105 111.611C39.0593 120.162 27.9696 125.715 16 127.44V80ZM16 304V256.56C27.9696 258.285 39.0593 263.838 47.6105 272.389C56.1618 280.941 61.7151 292.03 63.44 304H16ZM432 304H384.56C386.285 292.03 391.838 280.941 400.389 272.389C408.941 263.838 420.03 258.285 432 256.56V304Z" fill="black"/>
<path d="M224 272C239.823 272 255.29 267.308 268.446 258.518C281.602 249.727 291.855 237.233 297.91 222.615C303.965 207.997 305.55 191.911 302.463 176.393C299.376 160.874 291.757 146.62 280.569 135.432C269.38 124.243 255.126 116.624 239.607 113.537C224.089 110.45 208.003 112.035 193.385 118.09C178.767 124.145 166.273 134.398 157.482 147.554C148.692 160.71 144 176.178 144 192C144 202.506 146.069 212.909 150.09 222.615C154.11 232.321 160.003 241.14 167.431 248.569C182.434 263.571 202.783 272 224 272ZM224 128C236.658 128 249.032 131.754 259.556 138.786C270.081 145.818 278.284 155.814 283.128 167.508C287.972 179.203 289.24 192.071 286.77 204.486C284.301 216.901 278.205 228.304 269.255 237.255C260.304 246.205 248.901 252.301 236.486 254.77C224.071 257.24 211.203 255.972 199.508 251.128C187.814 246.284 177.818 238.081 170.786 227.557C163.754 217.032 160 204.658 160 192C160 175.026 166.743 158.748 178.745 146.745C190.747 134.743 207.026 128 224 128Z" fill="currentColor"/>
</svg>
