<svg width="100%" height="100%" viewBox="0 0 512 512" fill="none" xmlns="http://www.w3.org/2000/svg">
<path d="M370.56 16H141.44C129.402 16.0422 117.868 20.8431 109.356 29.3557C100.843 37.8682 96.0422 49.4015 96 61.44V480C96 484.243 97.6857 488.313 100.686 491.314C103.687 494.314 107.757 496 112 496H400C404.243 496 408.313 494.314 411.314 491.314C414.314 488.313 416 484.243 416 480V61.44C415.958 49.4015 411.157 37.8682 402.644 29.3557C394.132 20.8431 382.598 16.0422 370.56 16ZM288 464H224V400H288V464ZM384 464H320V384C320 379.757 318.314 375.687 315.314 372.686C312.313 369.686 308.243 368 304 368H208C203.757 368 199.687 369.686 196.686 372.686C193.686 375.687 192 379.757 192 384V464H128V61.44C128 57.8755 129.416 54.457 131.936 51.9365C134.457 49.416 137.875 48 141.44 48H370.56C374.125 48 377.543 49.416 380.064 51.9365C382.584 54.457 384 57.8755 384 61.44V464Z" fill="currentColor"/>
<path d="M320 80C315.757 80 311.687 81.6857 308.686 84.6863C305.686 87.6869 304 91.7565 304 96V128C304 132.243 305.686 136.313 308.686 139.314C311.687 142.314 315.757 144 320 144C324.243 144 328.313 142.314 331.314 139.314C334.314 136.313 336 132.243 336 128V96C336 91.7565 334.314 87.6869 331.314 84.6863C328.313 81.6857 324.243 80 320 80ZM320 176C315.757 176 311.687 177.686 308.686 180.686C305.686 183.687 304 187.757 304 192V224C304 228.243 305.686 232.313 308.686 235.314C311.687 238.314 315.757 240 320 240C324.243 240 328.313 238.314 331.314 235.314C334.314 232.313 336 228.243 336 224V192C336 187.757 334.314 183.687 331.314 180.686C328.313 177.686 324.243 176 320 176ZM320 272C315.757 272 311.687 273.686 308.686 276.686C305.686 279.687 304 283.757 304 288V320C304 324.243 305.686 328.313 308.686 331.314C311.687 334.314 315.757 336 320 336C324.243 336 328.313 334.314 331.314 331.314C334.314 328.313 336 324.243 336 320V288C336 283.757 334.314 279.687 331.314 276.686C328.313 273.686 324.243 272 320 272ZM192 80C187.757 80 183.687 81.6857 180.686 84.6863C177.686 87.6869 176 91.7565 176 96V128C176 132.243 177.686 136.313 180.686 139.314C183.687 142.314 187.757 144 192 144C196.243 144 200.313 142.314 203.314 139.314C206.314 136.313 208 132.243 208 128V96C208 91.7565 206.314 87.6869 203.314 84.6863C200.313 81.6857 196.243 80 192 80ZM192 176C187.757 176 183.687 177.686 180.686 180.686C177.686 183.687 176 187.757 176 192V224C176 228.243 177.686 232.313 180.686 235.314C183.687 238.314 187.757 240 192 240C196.243 240 200.313 238.314 203.314 235.314C206.314 232.313 208 228.243 208 224V192C208 187.757 206.314 183.687 203.314 180.686C200.313 177.686 196.243 176 192 176ZM192 272C187.757 272 183.687 273.686 180.686 276.686C177.686 279.687 176 283.757 176 288V320C176 324.243 177.686 328.313 180.686 331.314C183.687 334.314 187.757 336 192 336C196.243 336 200.313 334.314 203.314 331.314C206.314 328.313 208 324.243 208 320V288C208 283.757 206.314 279.687 203.314 276.686C200.313 273.686 196.243 272 192 272Z" fill="currentColor"/>
</svg>
