<svg width="100%" height="100%" viewBox="0 0 512 512" fill="none" xmlns="http://www.w3.org/2000/svg">
<path d="M386.744 290.406C385.266 288.632 383.232 287.41 380.971 286.938C378.711 286.466 376.357 286.772 374.292 287.805L256 346.952L137.707 287.805C135.645 286.772 133.293 286.465 131.034 286.935C128.775 287.406 126.741 288.625 125.262 290.396C123.782 292.167 122.944 294.385 122.884 296.692C122.823 298.999 123.544 301.258 124.928 303.104L247.808 466.944C247.931 467.108 248.136 467.169 248.279 467.333C248.962 468.14 249.771 468.832 250.675 469.381C250.999 469.632 251.341 469.858 251.699 470.057C253.033 470.73 254.506 471.081 256 471.081C257.494 471.081 258.967 470.73 260.301 470.057C260.659 469.858 261.001 469.632 261.325 469.381C262.228 468.832 263.038 468.14 263.721 467.333C263.864 467.169 264.069 467.108 264.192 466.944L387.072 303.104C388.454 301.26 389.174 299.003 389.115 296.698C389.055 294.394 388.22 292.177 386.744 290.406ZM245.76 364.728V430.08L167.342 325.632L245.76 364.728ZM266.24 430.08V364.728L344.658 325.632L266.24 430.08Z" fill="black"/>
<path d="M123.167 257.188C123.157 257.75 123.198 258.312 123.289 258.867C123.392 259.195 123.638 259.441 123.761 259.748C123.809 260.032 123.878 260.313 123.965 260.588C124.088 260.854 124.395 260.956 124.539 261.202C125.225 262.338 126.13 263.327 127.201 264.11C127.549 264.356 127.795 264.643 128.143 264.847C128.491 265.052 128.389 265.093 128.532 265.155L251.412 326.595H251.699C253.037 327.254 254.508 327.597 256 327.597C257.491 327.597 258.963 327.254 260.301 326.595H260.587L383.467 265.155C383.768 264.947 384.055 264.721 384.328 264.479C384.968 264.078 385.559 263.604 386.089 263.066C386.542 262.603 386.947 262.095 387.297 261.55C387.561 261.243 387.807 260.922 388.034 260.588C388.178 260.28 388.157 259.973 388.28 259.686C388.44 259.422 388.583 259.148 388.71 258.867C388.741 258.499 388.741 258.129 388.71 257.761C388.856 257.054 388.911 256.332 388.874 255.611C388.851 255.012 388.776 254.415 388.649 253.829C388.481 253.121 388.233 252.434 387.912 251.781C387.824 251.453 387.714 251.132 387.584 250.819L264.704 46.0186C264.561 45.7933 264.294 45.7113 264.151 45.5065C263.254 44.1547 262.037 43.0458 260.608 42.2787C259.178 41.5116 257.581 41.1101 255.959 41.1101C254.337 41.1101 252.74 41.5116 251.31 42.2787C249.881 43.0458 248.664 44.1547 247.767 45.5065C247.624 45.7113 247.357 45.7933 247.214 46.0186L124.334 250.819C123.517 252.272 123.067 253.903 123.023 255.57C123.023 255.754 122.88 255.898 122.88 256.082C122.952 256.456 123.048 256.826 123.167 257.188ZM245.76 300.872L156.017 256L245.76 211.128V300.872ZM266.24 211.128L355.983 256L266.24 300.872V211.128ZM266.24 188.232V88.1664L351.99 231.096L266.24 188.232ZM245.76 188.232L159.99 231.117L245.76 88.1664V188.232Z" fill="currentColor"/>
</svg>
