<svg width="100%" height="100%" viewBox="0 0 512 512" fill="none" xmlns="http://www.w3.org/2000/svg">
<path d="M358.4 375.467H307.2C284.635 375.42 262.544 368.983 243.486 356.901C224.427 344.82 209.18 327.588 199.509 307.2H307.2C311.726 307.2 316.067 305.402 319.268 302.201C322.468 299.001 324.267 294.66 324.267 290.133C324.267 285.607 322.468 281.266 319.268 278.065C316.067 274.865 311.726 273.067 307.2 273.067H189.099C187.278 261.762 187.278 250.238 189.099 238.933H324.267C328.793 238.933 333.134 237.135 336.335 233.935C339.535 230.734 341.333 226.393 341.333 221.867C341.333 217.34 339.535 212.999 336.335 209.799C333.134 206.598 328.793 204.8 324.267 204.8H199.509C209.18 184.412 224.427 167.18 243.486 155.099C262.544 143.017 284.635 136.58 307.2 136.533H358.4C362.926 136.533 367.267 134.735 370.468 131.535C373.668 128.334 375.467 123.993 375.467 119.467C375.467 114.94 373.668 110.599 370.468 107.399C367.267 104.198 362.926 102.4 358.4 102.4H307.2C275.481 102.454 244.556 112.326 218.673 130.661C192.79 148.996 173.218 174.895 162.645 204.8H119.467C114.94 204.8 110.599 206.598 107.399 209.799C104.198 212.999 102.4 217.34 102.4 221.867C102.4 226.393 104.198 230.734 107.399 233.935C110.599 237.135 114.94 238.933 119.467 238.933H154.624C153.258 250.27 153.258 261.73 154.624 273.067H102.4C97.8736 273.067 93.5326 274.865 90.332 278.065C87.1313 281.266 85.3333 285.607 85.3333 290.133C85.3333 294.66 87.1313 299.001 90.332 302.201C93.5326 305.402 97.8736 307.2 102.4 307.2H162.645C173.218 337.105 192.79 363.004 218.673 381.339C244.556 399.674 275.481 409.546 307.2 409.6H358.4C362.926 409.6 367.267 407.802 370.468 404.601C373.668 401.401 375.467 397.06 375.467 392.533C375.467 388.007 373.668 383.666 370.468 380.465C367.267 377.265 362.926 375.467 358.4 375.467Z" fill="currentColor"/>
</svg>
