<svg width="100%" height="100%" viewBox="0 0 512 512" fill="none" xmlns="http://www.w3.org/2000/svg">
<path d="M347.429 91.4286C347.429 96.381 345.619 100.667 342 104.286C338.381 107.905 334.095 109.714 329.143 109.714H292.571V402.286H329.143C334.095 402.286 338.381 404.095 342 407.714C345.619 411.333 347.429 415.619 347.429 420.571C347.429 425.524 345.619 429.81 342 433.429L268.857 506.571C265.238 510.19 260.952 512 256 512C251.048 512 246.762 510.19 243.143 506.571L170 433.429C166.381 429.81 164.571 425.524 164.571 420.571C164.571 415.619 166.381 411.333 170 407.714C173.619 404.095 177.905 402.286 182.857 402.286H219.429V109.714H182.857C177.905 109.714 173.619 107.905 170 104.286C166.381 100.667 164.571 96.381 164.571 91.4286C164.571 86.4762 166.381 82.1905 170 78.5714L243.143 5.42857C246.762 1.80952 251.048 0 256 0C260.952 0 265.238 1.80952 268.857 5.42857L342 78.5714C345.619 82.1905 347.429 86.4762 347.429 91.4286Z" fill="currentColor"/>
</svg>
