<svg width="100%" height="100%" viewBox="0 0 512 512" fill="none" xmlns="http://www.w3.org/2000/svg">
<path d="M91.4286 164.571C96.381 164.571 100.667 166.381 104.286 170C107.905 173.619 109.714 177.905 109.714 182.857V219.429L402.286 219.429V182.857C402.286 177.905 404.095 173.619 407.714 170C411.333 166.381 415.619 164.571 420.571 164.571C425.524 164.571 429.81 166.381 433.429 170L506.571 243.143C510.19 246.762 512 251.048 512 256C512 260.952 510.19 265.238 506.571 268.857L433.429 342C429.81 345.619 425.524 347.429 420.571 347.429C415.619 347.429 411.333 345.619 407.714 342C404.095 338.381 402.286 334.095 402.286 329.143V292.571H109.714V329.143C109.714 334.095 107.905 338.381 104.286 342C100.667 345.619 96.381 347.429 91.4286 347.429C86.4762 347.429 82.1905 345.619 78.5714 342L5.42857 268.857C1.80952 265.238 0 260.952 0 256C0 251.048 1.80952 246.762 5.42857 243.143L78.5714 170C82.1905 166.381 86.4762 164.571 91.4286 164.571Z" fill="currentColor"/>
</svg>
