<svg width="100%" height="100%" viewBox="0 0 386 384" fill="none" xmlns="http://www.w3.org/2000/svg">
<path fill-rule="evenodd" clip-rule="evenodd" d="M43.6667 21.3333V46.2933C31.1753 50.7008 20.3586 58.8744 12.7075 69.6874C5.05646 80.5005 0.947754 93.4205 0.947754 106.667C0.947754 119.913 5.05646 132.833 12.7075 143.646C20.3586 154.459 31.1753 162.632 43.6667 167.04L43.6667 362.667C43.6667 368.325 45.9143 373.751 49.9151 377.752C53.9159 381.752 59.3421 384 65 384C70.658 384 76.0842 381.752 80.085 377.752C84.0857 373.751 86.3334 368.325 86.3334 362.667L86.3334 167.04C98.8247 162.632 109.641 154.459 117.293 143.646C124.944 132.833 129.052 119.913 129.052 106.667C129.052 93.4205 124.944 80.5005 117.293 69.6874C109.641 58.8744 98.8247 50.7008 86.3334 46.2933V21.3333C86.3334 15.6754 84.0857 10.2491 80.085 6.24836C76.0842 2.24759 70.658 -1.14441e-05 65 -1.14441e-05C59.3421 -1.14441e-05 53.9159 2.24759 49.9151 6.24836C45.9143 10.2491 43.6667 15.6754 43.6667 21.3333ZM86.3334 106.667C86.3334 101.009 84.0857 95.5825 80.085 91.5817C76.0842 87.5809 70.658 85.3333 65 85.3333C59.3421 85.3333 53.9159 87.5809 49.9151 91.5817C45.9143 95.5825 43.6667 101.009 43.6667 106.667C43.6667 112.325 45.9143 117.751 49.9151 121.752C53.9159 125.752 59.3421 128 65 128C70.658 128 76.0842 125.752 80.085 121.752C84.0857 117.751 86.3334 112.325 86.3334 106.667ZM193 384C187.342 384 181.916 381.752 177.915 377.752C173.914 373.751 171.667 368.325 171.667 362.667V337.707C159.175 333.299 148.359 325.126 140.708 314.313C133.056 303.5 128.948 290.579 128.948 277.333C128.948 264.087 133.056 251.167 140.708 240.354C148.359 229.541 159.175 221.368 171.667 216.96L171.667 21.3333C171.667 15.6754 173.914 10.2491 177.915 6.24836C181.916 2.24759 187.342 -1.14441e-05 193 -1.14441e-05C198.658 -1.14441e-05 204.084 2.24759 208.085 6.24836C212.086 10.2491 214.333 15.6754 214.333 21.3333L214.333 216.96C226.825 221.368 237.641 229.541 245.293 240.354C252.944 251.167 257.052 264.087 257.052 277.333C257.052 290.579 252.944 303.5 245.293 314.313C237.641 325.126 226.825 333.299 214.333 337.707V362.667C214.333 368.325 212.086 373.751 208.085 377.752C204.084 381.752 198.658 384 193 384ZM214.333 277.333C214.333 271.675 212.086 266.249 208.085 262.248C204.084 258.248 198.658 256 193 256C187.342 256 181.916 258.248 177.915 262.248C173.914 266.249 171.667 271.675 171.667 277.333C171.667 282.991 173.914 288.417 177.915 292.418C181.916 296.419 187.342 298.667 193 298.667C198.658 298.667 204.084 296.419 208.085 292.418C212.086 288.417 214.333 282.991 214.333 277.333ZM299.667 362.667C299.667 368.325 301.914 373.751 305.915 377.752C309.916 381.752 315.342 384 321 384C326.658 384 332.084 381.752 336.085 377.752C340.086 373.751 342.333 368.325 342.333 362.667V167.04C354.825 162.632 365.641 154.459 373.293 143.646C380.944 132.833 385.052 119.913 385.052 106.667C385.052 93.4205 380.944 80.5005 373.293 69.6874C365.641 58.8744 354.825 50.7008 342.333 46.2933V21.3333C342.333 15.6754 340.086 10.2491 336.085 6.24836C332.084 2.24759 326.658 -1.14441e-05 321 -1.14441e-05C315.342 -1.14441e-05 309.916 2.24759 305.915 6.24836C301.914 10.2491 299.667 15.6754 299.667 21.3333V46.2933C287.175 50.7008 276.359 58.8744 268.708 69.6874C261.056 80.5005 256.948 93.4205 256.948 106.667C256.948 119.913 261.056 132.833 268.708 143.646C276.359 154.459 287.175 162.632 299.667 167.04V362.667ZM321 85.3333C326.658 85.3333 332.084 87.5809 336.085 91.5817C340.086 95.5825 342.333 101.009 342.333 106.667C342.333 112.325 340.086 117.751 336.085 121.752C332.084 125.752 326.658 128 321 128C315.342 128 309.916 125.752 305.915 121.752C301.914 117.751 299.667 112.325 299.667 106.667C299.667 101.009 301.914 95.5825 305.915 91.5817C309.916 87.5809 315.342 85.3333 321 85.3333Z" fill="currentColor"/>
</svg>
