<svg width="100%" height="100%" viewBox="0 0 512 512" fill="none" xmlns="http://www.w3.org/2000/svg">
<path d="M384 149.333H376.533C381.402 139.366 383.954 128.426 384 117.333C384.065 102.471 379.68 87.9293 371.409 75.5803C363.139 63.2313 351.362 53.6401 337.595 48.0413C323.827 42.4424 308.699 41.0922 294.157 44.1644C279.616 47.2367 266.326 54.5907 256 65.2799C245.674 54.5907 232.384 47.2367 217.843 44.1644C203.301 41.0922 188.173 42.4424 174.405 48.0413C160.638 53.6401 148.861 63.2313 140.591 75.5803C132.32 87.9293 127.935 102.471 128 117.333C128.046 128.426 130.598 139.366 135.467 149.333H128C111.026 149.333 94.7475 156.076 82.7452 168.078C70.7428 180.081 64 196.359 64 213.333V256C64 261.658 66.2476 267.084 70.2484 271.085C74.2492 275.086 79.6754 277.333 85.3333 277.333H106.667V405.333C106.667 422.307 113.41 438.586 125.412 450.588C137.414 462.59 153.693 469.333 170.667 469.333H341.333C358.307 469.333 374.586 462.59 386.588 450.588C398.591 438.586 405.333 422.307 405.333 405.333V277.333H426.667C432.325 277.333 437.751 275.086 441.752 271.085C445.752 267.084 448 261.658 448 256V213.333C448 196.359 441.257 180.081 429.255 168.078C417.253 156.076 400.974 149.333 384 149.333ZM234.667 426.667H170.667C165.009 426.667 159.583 424.419 155.582 420.418C151.581 416.417 149.333 410.991 149.333 405.333V277.333H234.667V426.667ZM234.667 234.667H106.667V213.333C106.667 207.675 108.914 202.249 112.915 198.248C116.916 194.248 122.342 192 128 192H234.667V234.667ZM234.667 149.333H202.667C196.338 149.333 190.151 147.456 184.888 143.94C179.626 140.424 175.525 135.426 173.103 129.579C170.681 123.732 170.047 117.298 171.282 111.09C172.516 104.883 175.564 99.1811 180.039 94.7058C184.515 90.2305 190.216 87.1828 196.424 85.9481C202.631 84.7134 209.065 85.3471 214.913 87.7691C220.76 90.1911 225.758 94.2926 229.274 99.555C232.79 104.817 234.667 111.004 234.667 117.333V149.333ZM277.333 117.333C277.333 111.004 279.21 104.817 282.726 99.555C286.243 94.2926 291.24 90.1911 297.087 87.7691C302.935 85.3471 309.369 84.7134 315.576 85.9481C321.784 87.1828 327.485 90.2305 331.961 94.7058C336.436 99.1811 339.484 104.883 340.718 111.09C341.953 117.298 341.319 123.732 338.897 129.579C336.475 135.426 332.374 140.424 327.112 143.94C321.849 147.456 315.662 149.333 309.333 149.333H277.333V117.333ZM362.667 405.333C362.667 410.991 360.419 416.417 356.418 420.418C352.418 424.419 346.991 426.667 341.333 426.667H277.333V277.333H362.667V405.333ZM405.333 234.667H277.333V192H384C389.658 192 395.084 194.248 399.085 198.248C403.086 202.249 405.333 207.675 405.333 213.333V234.667Z" fill="currentColor"/>
</svg>
