<svg width="100%" height="100%" class="icon fs-5 me-4" xmlns="http://www.w3.org/2000/svg" fill="none" viewBox="0 0 26 20"><path fill-rule="evenodd" clip-rule="evenodd" d="M3.5 5.3c.5 0 .8.3.8.8v7.5c0 .3-.2.6-.5.8-.3 0-.6 0-.8-.2L.7 11.7a.9.9 0 0 1 0-1.2c.3-.3.8-.3 1.1 0l1 1V6.2c0-.5.3-.8.7-.8Zm2.3.8c0-.5.4-.8.8-.8h18.1c.3 0 .5 0 .7.3.1.2.1.5 0 .8l-.7-.3.8.3a13 13 0 0 1-.4 1l-1 2c-.4.8-.9 1.6-1.5 2.2-.6.6-1.4 1.1-2.3 1.1h-8.7L9 15.4c-.2.3-.5.3-.8.2a.8.8 0 0 1-.5-.8v-2.1H7a.7.7 0 0 1-.7-.7 67.3 67.3 0 0 1-.5-6h.8-.8Zm1.6.8a43.2 43.2 0 0 0 .3 4.1h12.5c.5 0 .9-.2 1.4-.7a8 8 0 0 0 1.2-1.8l.8-1.6H7.4Zm2 5.8Z" fill="currentColor"></path></svg>