<svg width="100%" height="100%" viewBox="0 0 512 512" fill="none" xmlns="http://www.w3.org/2000/svg">
<path d="M256 42.6667C210.736 42.6667 167.327 60.6476 135.32 92.6538C103.314 124.66 85.3333 168.07 85.3333 213.333C85.3333 328.533 235.733 458.667 242.133 464.213C245.998 467.519 250.915 469.335 256 469.335C261.085 469.335 266.003 467.519 269.867 464.213C277.333 458.667 426.667 328.533 426.667 213.333C426.667 168.07 408.686 124.66 376.68 92.6538C344.673 60.6476 301.264 42.6667 256 42.6667ZM256 419.2C210.56 376.533 128 284.587 128 213.333C128 179.386 141.486 146.828 165.49 122.824C189.495 98.819 222.052 85.3333 256 85.3333C289.948 85.3333 322.505 98.819 346.51 122.824C370.514 146.828 384 179.386 384 213.333C384 284.587 301.44 376.747 256 419.2ZM256 128C239.123 128 222.624 133.005 208.591 142.381C194.558 151.758 183.621 165.085 177.162 180.678C170.704 196.27 169.014 213.428 172.306 229.981C175.599 246.534 183.726 261.739 195.66 273.673C207.594 285.607 222.799 293.734 239.352 297.027C255.905 300.32 273.063 298.63 288.656 292.171C304.248 285.712 317.576 274.775 326.952 260.742C336.329 246.709 341.333 230.211 341.333 213.333C341.333 190.702 332.343 168.997 316.34 152.994C300.337 136.99 278.632 128 256 128ZM256 256C247.561 256 239.312 253.498 232.296 248.809C225.279 244.121 219.81 237.457 216.581 229.661C213.352 221.865 212.507 213.286 214.153 205.009C215.799 196.733 219.863 189.131 225.83 183.163C231.797 177.196 239.4 173.133 247.676 171.486C255.953 169.84 264.532 170.685 272.328 173.914C280.124 177.144 286.788 182.613 291.476 189.629C296.164 196.646 298.667 204.895 298.667 213.333C298.667 224.649 294.171 235.502 286.17 243.503C278.168 251.505 267.316 256 256 256Z" fill="currentColor"/>
</svg>
