<svg width="100%" height="100%" viewBox="0 0 14 15" fill="none" xmlns="http://www.w3.org/2000/svg">
<path fill-rule="evenodd" clip-rule="evenodd" d="M10.4994 6.62111C10.4994 7.21206 10.383 7.79722 10.1569 8.34319C9.93072 8.88915 9.59925 9.38523 9.18139 9.80309C8.76353 10.221 8.26745 10.5524 7.72148 10.7786C7.17552 11.0047 6.59036 11.1211 5.99941 11.1211C5.40846 11.1211 4.8233 11.0047 4.27733 10.7786C3.73137 10.5524 3.23529 10.221 2.81743 9.80309C2.39956 9.38523 2.0681 8.88915 1.84195 8.34319C1.6158 7.79722 1.49941 7.21206 1.49941 6.62111C1.49941 5.42764 1.97351 4.28305 2.81743 3.43913C3.66134 2.59522 4.80593 2.12111 5.99941 2.12111C7.19288 2.12111 8.33747 2.59522 9.18139 3.43913C10.0253 4.28305 10.4994 5.42764 10.4994 6.62111ZM9.67941 11.3611C8.47379 12.2971 6.95678 12.7384 5.43721 12.5953C3.91764 12.4521 2.50975 11.7352 1.50016 10.5905C0.490564 9.44583 -0.0448401 7.95941 0.00294397 6.43386C0.0507281 4.90832 0.678108 3.45832 1.75736 2.37907C2.83662 1.29981 4.28661 0.672432 5.81216 0.624648C7.33771 0.576864 8.82412 1.11227 9.96881 2.12186C11.1135 3.13146 11.8304 4.53935 11.9735 6.05891C12.1167 7.57848 11.6754 9.09549 10.7394 10.3011L13.5294 13.0911C13.6031 13.1598 13.6622 13.2426 13.7032 13.3346C13.7442 13.4266 13.7662 13.5259 13.768 13.6266C13.7698 13.7273 13.7513 13.8273 13.7135 13.9207C13.6758 14.0141 13.6197 14.0989 13.5484 14.1702C13.4772 14.2414 13.3924 14.2975 13.299 14.3352C13.2056 14.373 13.1056 14.3915 13.0049 14.3897C12.9042 14.3879 12.8049 14.3659 12.7129 14.3249C12.6209 14.2839 12.5381 14.2248 12.4694 14.1511L9.67941 11.3611Z" fill="currentColor"/>
</svg>
