<svg width="100%" height="100%" viewBox="0 0 512 512" fill="none" xmlns="http://www.w3.org/2000/svg">
<path fill-rule="evenodd" clip-rule="evenodd" d="M256.497 21.3747C232.093 21.2134 209.661 34.9937 198.789 56.7909L188.706 76.9573C184.732 78.4328 180.823 80.049 176.956 81.7906L155.581 74.6657C132.49 66.9576 106.86 73.0687 89.7489 90.4572C72.8845 107.597 67.0953 132.831 74.7074 155.581L81.8323 176.914C80.0534 180.809 78.3889 184.744 76.8741 188.748L56.791 198.789C35.0165 209.65 21.1962 232.06 21.3748 256.455C21.5508 280.507 35.2905 302.447 56.7493 313.163L76.9574 323.329C78.4388 327.304 80.0497 331.215 81.7907 335.079L74.7074 356.412C67.0069 379.482 73.0986 405.089 90.4572 422.203C107.584 439.089 132.82 444.882 155.581 437.286L176.914 430.203C180.804 431.977 184.748 433.604 188.748 435.119L198.789 455.161C209.661 476.959 232.093 490.768 256.497 490.577C280.544 490.416 302.493 476.64 313.204 455.161L323.246 435.078C327.27 433.586 331.248 431.969 335.162 430.203L356.412 437.286C379.174 444.881 404.41 439.092 421.536 422.203C438.905 405.078 445.008 379.45 437.286 356.37L430.203 335.037C431.973 331.159 433.611 327.232 435.12 323.246L455.203 313.163C476.678 302.453 490.443 280.517 490.619 256.455C490.798 232.059 476.977 209.65 455.203 198.789L435.036 188.706C433.554 184.707 431.949 180.765 430.203 176.873L437.286 155.581V155.54C444.878 132.8 439.099 107.587 422.245 90.4572C405.133 73.0655 379.504 66.96 356.412 74.6657L335.037 81.7906C331.159 80.0248 327.233 78.3818 323.246 76.874L313.204 56.7909C302.493 35.313 280.545 21.5626 256.497 21.3747ZM256.163 64.0408C264.187 64.1029 271.436 68.6529 275.038 75.874L288.58 102.957C289.851 105.504 291.619 107.771 293.78 109.625C295.941 111.478 298.452 112.88 301.163 113.749C309.201 116.313 317.006 119.53 324.496 123.415C327.024 124.731 329.791 125.527 332.632 125.756C335.473 125.985 338.331 125.642 341.037 124.748L369.87 115.165H369.912C377.682 112.569 386.122 114.6 391.828 120.373C397.449 126.09 399.347 134.428 396.787 142.082V142.123L387.245 170.831C386.356 173.514 386.008 176.347 386.223 179.165C386.437 181.983 387.21 184.73 388.495 187.248C392.333 194.754 395.518 202.577 398.037 210.622C398.895 213.36 400.297 215.897 402.158 218.08C404.02 220.264 406.302 222.05 408.87 223.33L436.12 236.955C443.448 240.608 448.012 247.996 447.953 256.122C447.894 264.128 443.345 271.393 436.12 274.997H436.078L408.995 288.58C406.455 289.855 404.196 291.626 402.35 293.786C400.504 295.947 399.108 298.455 398.245 301.163C395.666 309.202 392.435 317.007 388.537 324.496C387.215 327.03 386.416 329.803 386.187 332.652C385.958 335.501 386.304 338.366 387.203 341.079L396.787 369.87C399.385 377.635 397.412 386.076 391.62 391.787C385.912 397.415 377.569 399.343 369.912 396.787H369.87L341.162 387.245C338.474 386.35 335.633 385.999 332.808 386.214C329.982 386.429 327.227 387.204 324.704 388.495C317.187 392.349 309.389 395.55 301.33 398.078C298.592 398.937 296.055 400.338 293.872 402.2C291.688 404.061 289.902 406.344 288.621 408.911L275.038 436.078C271.436 443.302 264.188 447.848 256.163 447.911C248.016 447.975 240.613 443.412 236.955 436.078L223.414 409.036C222.143 406.489 220.374 404.222 218.213 402.369C216.052 400.515 213.542 399.113 210.831 398.245C202.779 395.665 194.956 392.439 187.456 388.537C184.922 387.215 182.148 386.416 179.3 386.187C176.451 385.958 173.585 386.304 170.873 387.203L142.082 396.787C134.425 399.343 126.082 397.431 120.374 391.787C114.581 386.078 112.609 377.636 115.207 369.87V369.829L124.748 341.121C125.637 338.429 125.981 335.587 125.759 332.762C125.537 329.936 124.755 327.183 123.457 324.663C119.608 317.172 116.406 309.363 113.874 301.33C113.02 298.607 111.629 296.083 109.782 293.907C107.936 291.731 105.672 289.948 103.124 288.663L75.9157 274.997H75.8741C68.6481 271.392 64.0995 264.132 64.0409 256.122C63.9814 247.996 68.5455 240.61 75.8741 236.955L102.957 223.414C105.504 222.143 107.772 220.374 109.625 218.213C111.478 216.052 112.88 213.542 113.749 210.831C116.328 202.792 119.558 194.986 123.457 187.498C124.773 184.969 125.569 182.203 125.798 179.362C126.027 176.521 125.684 173.663 124.79 170.956L115.207 142.123V142.082C112.646 134.43 114.544 126.086 120.165 120.373C125.872 114.576 134.312 112.577 142.082 115.165L170.831 124.748C173.52 125.644 176.36 125.994 179.186 125.779C182.012 125.565 184.767 124.789 187.289 123.498C194.784 119.66 202.589 116.476 210.622 113.957C213.36 113.098 215.897 111.697 218.08 109.835C220.264 107.974 222.05 105.691 223.331 103.124L236.955 75.874C240.613 68.5368 248.016 63.9771 256.163 64.0408ZM256.08 149.331C197.423 149.331 149.29 197.298 149.29 255.955C149.289 314.612 197.423 362.704 256.08 362.704C314.737 362.704 362.662 314.612 362.662 255.955C362.662 197.298 314.737 149.331 256.08 149.331ZM256.08 191.998C291.679 191.998 319.996 220.357 319.996 255.955C319.996 291.554 291.679 320.038 256.08 320.038C220.482 320.038 191.956 291.554 191.956 255.955C191.956 220.357 220.482 191.998 256.08 191.998Z" fill="currentColor"/>
</svg>
