<svg width="100%" height="100%" viewBox="0 0 512 512" fill="none" xmlns="http://www.w3.org/2000/svg">
<path d="M243 209.106V242H393V209.106C393.025 204.236 392.087 199.409 390.239 194.904C388.39 190.398 385.669 186.303 382.231 182.854C378.793 179.404 374.706 176.67 370.206 174.807C365.707 172.944 360.883 171.99 356.013 172H280.549C259.983 172 243 188.541 243 209.106Z" fill="currentColor"/>
<path d="M419 256H218V293H419V256Z" fill="currentColor"/>
<path d="M115 145.6C115 120.139 125.114 95.7213 143.118 77.7178C161.121 59.7144 185.539 49.6001 211 49.6001C236.461 49.6001 260.879 59.7144 278.882 77.7178C296.886 95.7213 307 120.139 307 145.6V158H329V145.6C329 114.305 316.568 84.2908 294.439 62.1615C272.309 40.0322 242.296 27.6001 211 27.6001C179.704 27.6001 149.691 40.0322 127.561 62.1615C105.432 84.2908 93 114.305 93 145.6V484H115V145.6ZM311 331V368C311 369.857 311.738 371.637 313.05 372.95C314.363 374.263 316.143 375 318 375C319.857 375 321.637 374.263 322.95 372.95C324.262 371.637 325 369.857 325 368V331C325 329.144 324.262 327.363 322.95 326.05C321.637 324.738 319.857 324 318 324C316.143 324 314.363 324.738 313.05 326.05C311.738 327.363 311 329.144 311 331ZM391 331V368C391 369.857 391.738 371.637 393.05 372.95C394.363 374.263 396.143 375 398 375C399.857 375 401.637 374.263 402.95 372.95C404.262 371.637 405 369.857 405 368V331C405 329.144 404.262 327.363 402.95 326.05C401.637 324.738 399.857 324 398 324C396.143 324 394.363 324.738 393.05 326.05C391.738 327.363 391 329.144 391 331ZM231 331V368C231 369.857 231.737 371.637 233.05 372.95C234.363 374.263 236.143 375 238 375C239.857 375 241.637 374.263 242.95 372.95C244.263 371.637 245 369.857 245 368V331C245 329.144 244.263 327.363 242.95 326.05C241.637 324.738 239.857 324 238 324C236.143 324 234.363 324.738 233.05 326.05C231.737 327.363 231 329.144 231 331ZM365 408V371C365 369.144 364.262 367.363 362.95 366.05C361.637 364.738 359.857 364 358 364C356.143 364 354.363 364.738 353.05 366.05C351.738 367.363 351 369.144 351 371V408C351 409.857 351.738 411.637 353.05 412.95C354.363 414.263 356.143 415 358 415C359.857 415 361.637 414.263 362.95 412.95C364.262 411.637 365 409.857 365 408ZM271 371V408C271 409.857 271.738 411.637 273.05 412.95C274.363 414.263 276.143 415 278 415C279.857 415 281.637 414.263 282.95 412.95C284.262 411.637 285 409.857 285 408V371C285 369.144 284.262 367.363 282.95 366.05C281.637 364.738 279.857 364 278 364C276.143 364 274.363 364.738 273.05 366.05C271.738 367.363 271 369.144 271 371Z" fill="currentColor"/>
</svg>
