<svg width="100%" height="100%" class="icon fs-5 me-4" xmlns="http://www.w3.org/2000/svg" fill="none" viewBox="0 0 20 22"><path fill-rule="evenodd" clip-rule="evenodd" d="M2.8 2.8c0-1 .8-2 2-2h5a2 2 0 0 1 2 2V5H15a1 1 0 1 1 0 2H6.7a1 1 0 1 1 0-2h3.1V2.8h-5v.7a1 1 0 0 1-2 0v-.7Zm4.7 13c.6 0 1 .5 1 1v3.4a1 1 0 1 1-2 0v-3.4c0-.5.4-1 1-1Zm7.7 1a1 1 0 1 0-2 0v3.4a1 1 0 1 0 2 0v-3.4ZM7.5 8.3c.6 0 1 .5 1 1v3.4a1 1 0 1 1-2 0V9.3c0-.5.4-1 1-1Zm7.7 1a1 1 0 1 0-2 0v3.4a1 1 0 1 0 2 0V9.3Zm-4.4.7c.6 0 1 .4 1 1v3.3a1 1 0 1 1-2 0V11c0-.6.5-1 1-1Zm1 8.5a1 1 0 1 0-2 0v1.7a1 1 0 1 0 2 0v-1.7Z" fill="currentColor"></path></svg>