<svg width="100%" height="100%" viewBox="0 0 512 512" fill="none" xmlns="http://www.w3.org/2000/svg">
<path d="M411.387 303.256C408.268 293.679 403.496 284.695 397.086 276.304C390.664 267.922 382.69 260.478 373.156 253.973C363.617 247.475 352.435 242.343 339.603 238.573C334.46 237.21 325.414 235.067 313.499 232.155C304.983 230.081 296.999 227.955 287.999 225.788V120.065C296.999 122.461 303.251 126.267 309.925 130.495C324.204 139.535 333.157 155 335.78 176H404.954C404.3 158 400.304 143.24 392.958 129.98C384.888 115.437 373.981 102.956 360.228 93.024C346.478 83.102 330.003 75.534 311.851 70.569C303.967 68.416 297 66.605 288 65.386V32H224V65.167C217 66.211 208.852 67.612 201.574 69.417C184.332 73.7 169.186 80.285 155.623 89.181C142.052 98.086 131.271 109.293 123.019 122.808C114.768 136.331 110.707 152.328 110.707 170.808C110.707 180.393 112.114 189.801 114.864 199.043C117.616 208.284 122.306 217.01 128.906 225.224C135.509 233.438 144.401 240.882 155.593 247.556C166.776 254.228 180.298 259.62 197.169 263.727C206.456 266.072 215.999 268.261 223.999 270.303V389.889C212.999 386.97 202.11 382.49 193.321 376.41C184.151 370.083 177.255 362.457 172.123 352.526C167.344 343.297 165.05 332 164.716 320H96C96.695 341 101.25 359.494 109.672 375.371C118.471 391.975 130.205 405.331 144.876 415.933C159.538 426.546 176.269 434.289 196.074 439.424C204.959 441.728 215 443.384 224 444.654V480H288V445.46C298 444.391 306.957 442.77 316.527 440.581C335.228 436.308 352.172 429.545 366.843 420.305C381.505 411.065 393.464 399.177 402.454 384.624C411.434 370.083 415.999 352.539 415.999 332.005C416 322.427 414.498 312.841 411.387 303.256ZM224 209.699C212 205.956 200.088 200.611 191.949 193.651C183.328 186.296 179.276 176.117 179.276 163.106C179.276 153.865 181.69 146.166 186.28 140.004C190.86 133.843 196.192 128.966 203.16 125.373C209.34 122.184 217 119.808 224 118.235V209.699ZM342.902 359.471C339.963 366.144 335.203 372.047 328.599 377.182C321.997 382.315 312.855 386.51 302.222 389.759C297.722 391.137 293.999 392.203 287.999 392.995V285.885C297.999 288.509 306.179 291.217 314.325 294.016C322.387 296.76 330.073 301.459 336.862 308.132C343.647 314.808 347.171 325.162 347.171 339.192C347.172 346.042 345.834 352.797 342.902 359.471Z" fill="currentColor"/>
</svg>
