<svg width="100%" height="100%" class="icon fs-5 me-4" xmlns="http://www.w3.org/2000/svg" fill="none" viewBox="0 0 20 20"><path fill-rule="evenodd" clip-rule="evenodd" d="M5 .1c.3 0 .5.2.5.5v.8h1C7.3 1.4 8 2 8 2.9v7.9h8.5c.8 0 1.5.6 1.5 1.4v1c0 .5-.3 1-.8 1.3l-3.8 1.8c-.2.1-.3.4-.2.6l.4 1.7a.5.5 0 0 1-1 .3l-.4-1.8c-.2-.6.2-1.3.8-1.7l3.7-1.8c.2-.1.3-.3.3-.5v-.8c0-.3-.2-.6-.5-.6H5.1c-.4 0-.6.5-.4.9l2.3 3c.3.3.4.8.2 1.2l-.5 2a.5.5 0 0 1-1-.2l.6-2-.1-.4-2.3-3c-.3-.5-.3-1-.2-1.4h-.2c-.8 0-1.5-.7-1.5-1.6V3c0-.9.7-1.5 1.5-1.5h1V.6c0-.3.2-.5.5-.5Zm2 10.2c0 .2-.2.4-.5.4h-3a.5.5 0 0 1-.5-.4V2.8c0-.3.2-.5.5-.5h3c.3 0 .5.2.5.5v7.3Zm2.4-2a.5.5 0 0 0 0 1h7.5a.5.5 0 0 0 0-1H9.4Z" fill="currentColor"></path></svg>